<?xml version="1.0" standalone="no"?>
<svg version="1.0" xmlns="http://www.w3.org/2000/svg"
 width="297.000000pt" height="291.000000pt" viewBox="0 0 297.000000 291.000000"
 preserveAspectRatio="xMidYMid meet">

<g transform="translate(0.000000,291.000000) scale(0.100000,-0.100000)"
fill="blue" stroke="red">
<style type="text/css">
	.st0{fill:'red';stroke:'blue';stroke-miterlimit:10;}
	.st1{fill:'red';stroke:'blue';stroke-width:0.75;stroke-miterlimit:10;}
</style>
<path style="fill:'red'"  d="M685 2824 c-192 -48 -339 -141 -443 -281 -111 -147 -162 -300 -162
-484 0 -203 55 -340 242 -599 160 -223 212 -305 273 -432 114 -241 164 -456
181 -796 6 -125 8 -134 29 -144 16 -7 29 -7 44 1 18 10 21 22 23 74 9 322 37
489 120 712 71 192 132 300 316 557 175 245 217 327 248 478 20 99 15 259 -11
355 -19 73 -72 188 -116 251 -80 117 -219 223 -362 277 -75 28 -94 31 -222 33
-77 2 -149 0 -160 -2z m300 -111 c96 -24 209 -88 285 -163 210 -207 264 -531
132 -795 -31 -63 -57 -102 -166 -255 -145 -203 -214 -313 -270 -432 -52 -110
-117 -293 -132 -372 -6 -37 -8 -35 -39 75 -77 265 -146 399 -376 721 -130 181
-207 319 -227 408 -66 277 48 572 279 725 154 103 331 133 514 88z"/>
<path style="fill:'red'" d="M757 2286 c-152 -55 -207 -246 -107 -373 102 -130 300 -111 375 37
29 57 34 149 12 203 -22 52 -68 98 -122 123 -56 27 -102 29 -158 10z"/>
</g>
</svg>
